<svg width="36" height="34" viewBox="0 0 36 34" fill="none" xmlns="http://www.w3.org/2000/svg">
<path d="M17.9997 28.04L9.69965 33.04C9.33299 33.2733 8.94965 33.3733 8.54965 33.34C8.14965 33.3067 7.79965 33.1734 7.49965 32.94C7.19965 32.7067 6.96632 32.4153 6.79965 32.066C6.63299 31.7153 6.59965 31.3233 6.69965 30.89L8.89965 21.44L1.54965 15.09C1.21632 14.79 1.00832 14.448 0.925653 14.064C0.841653 13.6813 0.866319 13.3067 0.999652 12.94C1.13299 12.5733 1.33299 12.2733 1.59965 12.04C1.86632 11.8067 2.23299 11.6567 2.69965 11.59L12.3997 10.74L16.1497 1.84002C16.3163 1.44002 16.575 1.14001 16.9257 0.940015C17.275 0.740015 17.633 0.640015 17.9997 0.640015C18.3663 0.640015 18.725 0.740015 19.0757 0.940015C19.425 1.14001 19.683 1.44002 19.8497 1.84002L23.5997 10.74L33.2997 11.59C33.7663 11.6567 34.133 11.8067 34.3997 12.04C34.6663 12.2733 34.8663 12.5733 34.9997 12.94C35.133 13.3067 35.1583 13.6813 35.0757 14.064C34.9917 14.448 34.783 14.79 34.4497 15.09L27.0997 21.44L29.2997 30.89C29.3997 31.3233 29.3663 31.7153 29.1997 32.066C29.033 32.4153 28.7997 32.7067 28.4997 32.94C28.1997 33.1734 27.8497 33.3067 27.4497 33.34C27.0497 33.3733 26.6663 33.2733 26.2997 33.04L17.9997 28.04Z" fill="url(#paint0_linear_28_2917)"/>
<defs>
<linearGradient id="paint0_linear_28_2917" x1="0.876953" y1="0.640015" x2="37.8007" y2="33.4152" gradientUnits="userSpaceOnUse">
<stop stop-color="#FFEE58"/>
<stop offset="1" stop-color="#FF8F00"/>
</linearGradient>
</defs>
</svg>
